# xmcd
#
# Track frame offsets: 
#        150
#        20883
#        37218
#        55859
#        75421
#        92086
#
# Disc length: 1432 seconds
#
# Revision: 0
# Processed by: cddbd v1.5.2PL0 Copyright (c) Steve Scherf et al.
# Submitted via: ExactAudioCopyFreeDBPlugin 1.0
#
DISCID=47059606
DTITLE=Pigeon Park - Lovelight
DYEAR=2012
DGENRE=Blues
TTITLE0=Lovelight
TTITLE1=Figures
TTITLE2=Ridin' to the Sun
TTITLE3=Chromatic Euphoria
TTITLE4=Rise Above
TTITLE5=Rag Tag
EXTD=
EXTT0=
EXTT1=
EXTT2=
EXTT3=
EXTT4=
EXTT5=
PLAYORDER=
